<?xml version="1.0" standalone="no"?>
<!DOCTYPE svg PUBLIC "-//W3C//DTD SVG 20010904//EN"
 "http://www.w3.org/TR/2001/REC-SVG-20010904/DTD/svg10.dtd">
<svg version="1.0" xmlns="http://www.w3.org/2000/svg"
 width="600.000000pt" height="600.000000pt" viewBox="0 0 600.000000 600.000000"
 preserveAspectRatio="xMidYMid meet">
<g transform="translate(0.000000,600.000000) scale(0.100000,-0.100000)"
fill="#000000" stroke="none">
<path d="M1458 5243 c12 -2 32 -2 45 0 12 2 2 4 -23 4 -25 0 -35 -2 -22 -4z"/>
<path d="M1577 5243 c18 -2 50 -2 70 0 21 2 7 4 -32 4 -38 0 -55 -2 -38 -4z"/>
<path d="M1858 5243 c18 -2 45 -2 60 0 15 2 0 4 -33 4 -33 0 -45 -2 -27 -4z"/>
<path d="M2318 5243 c45 -2 119 -2 165 0 45 1 8 3 -83 3 -91 0 -128 -2 -82 -3z"/>
<path d="M2688 5243 c12 -2 30 -2 40 0 9 3 -1 5 -23 4 -22 0 -30 -2 -17 -4z"/>
<path d="M2858 5243 c34 -2 90 -2 125 0 34 2 6 3 -63 3 -69 0 -97 -1 -62 -3z"/>
<path d="M3298 5243 c12 -2 32 -2 45 0 12 2 2 4 -23 4 -25 0 -35 -2 -22 -4z"/>
<path d="M3618 5243 c12 -2 32 -2 45 0 12 2 2 4 -23 4 -25 0 -35 -2 -22 -4z"/>
<path d="M4143 5243 c37 -2 97 -2 135 0 37 2 6 3 -68 3 -74 0 -105 -1 -67 -3z"/>
<path d="M4950 5061 c0 -6 4 -13 10 -16 6 -3 7 1 4 9 -7 18 -14 21 -14 7z"/>
<path d="M1020 5040 c-9 -6 -10 -10 -3 -10 6 0 15 5 18 10 8 12 4 12 -15 0z"/>
<path d="M5000 5013 c0 -6 8 -17 18 -24 16 -13 16 -13 2 6 -8 11 -16 22 -17
24 -2 2 -3 0 -3 -6z"/>
<path d="M960 4970 c-6 -11 -8 -20 -6 -20 3 0 10 9 16 20 6 11 8 20 6 20 -3 0
-10 -9 -16 -20z"/>
<path d="M5061 4934 c0 -11 3 -14 6 -6 3 7 2 16 -1 19 -3 4 -6 -2 -5 -13z"/>
<path d="M5121 4819 c0 -9 6 -22 14 -29 10 -9 15 -9 15 -1 0 6 -4 11 -9 11 -5
0 -12 8 -14 18 -4 14 -5 14 -6 1z"/>
<path d="M862 4804 c-7 -8 -12 -20 -9 -27 2 -7 9 -2 16 11 15 28 11 36 -7 16z"/>
<path d="M5155 4750 c3 -14 10 -53 16 -87 13 -73 24 -86 13 -15 -4 26 -8 54
-9 62 -1 8 -8 26 -14 40 l-12 25 6 -25z"/>
<path d="M842 4740 c0 -14 2 -19 5 -12 2 6 2 18 0 25 -3 6 -5 1 -5 -13z"/>
<path d="M815 4640 c-4 -28 -5 -53 -2 -56 2 -3 7 19 11 47 4 28 5 53 3 56 -3
2 -8 -19 -12 -47z"/>
<path d="M813 3075 c-2 -1047 1 -1509 8 -1555 6 -36 12 -77 13 -92 0 -14 4
-24 8 -21 5 2 8 -2 8 -9 0 -7 18 -49 40 -93 22 -44 38 -85 36 -92 -3 -7 1 -10
8 -7 8 3 24 -9 37 -28 29 -41 66 -77 102 -101 16 -10 25 -23 21 -29 -4 -7 -3
-8 5 -4 6 4 23 -1 39 -12 40 -29 193 -94 207 -88 7 2 17 0 22 -5 7 -7 145 -23
193 -22 12 1 740 2 790 2 8 0 489 0 1068 0 579 1 1057 -1 1063 -4 5 -4 9 -3 9
2 0 4 30 9 67 10 36 1 71 7 77 13 13 13 29 13 21 -1 -4 -6 11 -1 34 10 23 12
41 19 41 17 0 -7 124 55 142 71 9 8 22 12 28 8 6 -3 9 -2 8 2 -2 5 14 25 35
45 20 19 37 33 37 30 0 -2 23 24 51 59 48 60 119 191 119 220 0 7 -18 -24 -40
-69 -48 -100 -46 -97 -146 -197 -91 -90 -187 -145 -309 -176 -66 -18 -152 -19
-1648 -19 -1762 0 -1649 -4 -1799 71 -79 39 -97 52 -181 128 -80 74 -148 189
-183 311 -18 62 -19 139 -24 1590 l-5 1525 -2 -1490z"/>
<path d="M5180 3064 c-1 -824 -5 -1517 -9 -1539 -5 -22 -12 -56 -16 -75 l-6
-35 14 30 c8 17 17 59 21 95 8 73 9 3010 1 3018 -3 3 -5 -669 -5 -1494z"/>
<path d="M1450 3045 l0 -1035 230 0 230 0 0 448 0 447 340 0 340 0 0 -447 0
-448 225 0 225 0 0 1035 0 1035 -225 0 -225 0 0 -390 0 -390 -340 0 -340 0 0
390 0 390 -230 0 -230 0 0 -1035z m415 991 c12 -11 15 -78 17 -350 3 -295 1
-336 -12 -331 -11 3 -10 1 2 -7 15 -11 15 -13 0 -26 -15 -12 -15 -13 -1 -9 11
4 20 -3 27 -19 l11 -23 337 0 c184 0 342 3 350 6 8 3 11 10 7 17 -4 6 -1 6 9
-2 13 -10 17 -10 22 3 3 9 2 13 -4 10 -14 -9 -12 9 3 24 10 10 9 11 -3 6 -13
-5 -15 36 -13 332 1 186 2 348 2 360 1 21 3 21 195 23 149 0 195 -2 198 -12 2
-7 4 -458 3 -1001 -2 -837 -4 -990 -16 -998 -8 -5 -93 -8 -189 -6 -160 2 -176
4 -186 21 -7 12 -8 32 -3 55 5 20 6 45 3 55 -4 10 -8 181 -9 380 -4 378 -5
407 -11 391 -3 -7 -123 -8 -347 -5 -343 5 -344 5 -360 -16 -14 -19 -16 -69
-16 -425 0 -222 0 -413 0 -423 0 -11 -5 -22 -12 -26 -8 -6 -345 -7 -382 -1 -5
0 -6 5 -2 10 3 5 1 12 -3 15 -5 3 -6 29 -3 58 4 29 6 469 6 978 -1 831 0 926
14 937 24 19 348 18 366 -1z"/>
<path d="M1500 2050 c0 -5 5 -10 11 -10 5 0 7 5 4 10 -3 6 -8 10 -11 10 -2 0
-4 -4 -4 -10z"/>
<path d="M3945 3659 c-165 -232 -304 -430 -309 -440 -5 -10 -12 -19 -15 -19
-3 0 -5 196 -3 435 l3 435 -201 0 -200 0 0 -1030 0 -1030 200 0 201 0 -1 295
-1 294 92 116 c73 90 96 112 104 103 7 -7 51 -78 100 -158 49 -80 152 -248
230 -375 78 -126 147 -240 154 -252 12 -23 13 -23 256 -23 135 0 245 2 245 4
0 2 -80 132 -178 288 -162 258 -510 810 -535 849 -12 19 -38 -18 333 487 162
221 301 411 309 422 13 20 11 20 -235 20 l-249 -1 -300 -420z m-361 376 c2 -7
5 -196 5 -420 0 -293 4 -411 12 -421 16 -19 38 -18 46 3 4 10 17 28 30 41 13
13 32 41 44 63 11 23 23 38 26 35 3 -3 0 -14 -8 -23 -13 -16 -12 -17 4 -4 9 7
17 22 17 32 0 17 11 24 33 20 5 -1 6 3 2 9 -3 6 -10 8 -15 5 -6 -3 -2 7 7 23
10 17 23 28 30 25 9 -4 11 0 7 11 -4 10 0 18 10 22 9 3 16 13 16 21 0 7 12 26
28 40 15 15 20 22 12 18 -13 -8 -13 -6 -1 8 7 9 18 14 24 10 6 -3 7 -1 3 5 -8
14 42 84 55 76 5 -3 6 3 2 12 -5 14 -3 16 12 11 14 -6 16 -5 6 6 -8 11 -6 18
9 32 11 10 17 22 13 28 -3 5 -1 7 5 3 5 -3 12 0 15 6 3 10 8 10 23 -2 18 -14
18 -14 5 3 -8 10 -9 17 -3 17 6 0 9 9 7 20 -2 11 0 20 4 20 4 0 18 14 30 31
13 18 17 28 10 24 -12 -8 -12 -6 0 8 7 9 18 14 24 10 5 -3 7 -2 4 4 -8 13 57
106 67 96 4 -4 4 1 0 12 -6 14 -4 17 9 12 11 -4 14 -2 10 8 -3 8 2 18 11 21 9
3 16 12 16 20 0 8 5 14 11 14 5 0 7 -6 3 -12 -6 -10 -4 -10 7 0 9 9 65 12 205
12 201 0 229 -6 187 -40 -11 -9 -24 -26 -27 -38 -4 -12 -12 -20 -17 -17 -5 4
-9 2 -9 -4 0 -6 -10 -20 -22 -32 -13 -12 -16 -18 -8 -14 8 5 3 -4 -12 -19 -15
-16 -30 -37 -34 -48 -4 -13 -11 -17 -22 -13 -9 3 -13 3 -9 -1 4 -4 -1 -17 -10
-28 l-18 -21 24 20 24 20 -14 -23 c-13 -21 -45 -38 -62 -34 -5 1 -6 -2 -2 -8
3 -6 11 -8 16 -4 6 3 5 -3 -2 -14 -7 -12 -17 -18 -23 -15 -5 4 -7 -1 -3 -11 6
-14 3 -17 -8 -12 -9 3 -13 2 -10 -3 8 -14 -39 -78 -53 -73 -7 2 -12 0 -11 -5
3 -19 -2 -27 -10 -15 -7 11 -9 10 -14 -3 -4 -9 -3 -13 3 -10 6 3 10 -1 10 -10
0 -9 -4 -14 -8 -11 -4 2 -14 -9 -21 -25 -9 -20 -18 -28 -28 -25 -8 4 -11 2 -7
-5 4 -6 0 -15 -7 -20 -12 -7 -12 -9 0 -9 8 0 3 -10 -14 -27 -15 -15 -33 -40
-41 -55 -8 -16 -19 -28 -24 -28 -5 0 -11 -8 -14 -18 -9 -27 -65 -84 -76 -77
-5 3 -10 1 -10 -5 0 -7 7 -10 18 -6 15 5 15 5 1 -6 -9 -7 -16 -17 -16 -21 -1
-5 -10 -20 -22 -33 -24 -27 -26 -45 -9 -62 7 -7 9 -12 5 -12 -4 0 2 -9 14 -21
12 -12 19 -29 16 -39 -3 -13 0 -17 9 -13 8 3 17 -3 21 -13 4 -11 22 -43 40
-71 19 -29 32 -53 29 -53 -2 0 9 -14 25 -31 16 -17 26 -35 23 -40 -3 -5 0 -9
7 -9 9 0 9 -3 0 -14 -9 -11 -9 -16 0 -22 8 -4 9 -3 5 4 -4 7 -1 12 9 12 9 0
14 -3 12 -7 -9 -15 13 -54 25 -47 7 4 10 4 6 -1 -4 -4 2 -21 14 -38 12 -17 17
-28 12 -24 -6 3 -10 -3 -9 -16 1 -12 8 -22 16 -22 25 0 76 -66 64 -85 -3 -5
-1 -10 6 -10 7 0 9 -9 6 -22 -6 -21 -5 -22 7 -5 13 16 14 16 21 -5 4 -13 7
-28 6 -35 -1 -6 4 -15 10 -19 8 -5 9 -3 4 6 -5 9 -4 11 3 6 7 -4 12 -14 12
-22 0 -9 5 -12 12 -8 6 4 8 3 5 -3 -4 -6 0 -16 8 -23 21 -18 19 -35 -2 -19
-16 13 -17 12 -4 -3 7 -10 17 -16 21 -13 4 2 22 -23 41 -58 18 -34 50 -84 71
-110 21 -27 36 -53 33 -57 -3 -5 4 -14 15 -20 13 -7 19 -17 16 -26 -4 -10 -2
-12 6 -8 7 5 9 2 5 -9 -3 -9 1 -18 10 -21 9 -4 13 -12 9 -23 -4 -10 -4 -14 0
-10 8 8 34 -11 34 -25 0 -6 -7 -5 -15 2 -11 9 -15 9 -15 1 0 -8 -56 -10 -201
-8 -200 2 -200 2 -220 27 -10 14 -17 31 -14 38 2 6 0 12 -6 12 -6 0 -8 7 -5
16 3 8 2 13 -3 9 -13 -7 -49 47 -43 64 3 8 0 11 -7 7 -6 -4 -11 -1 -11 7 0 8
-11 26 -25 41 -14 15 -23 31 -21 35 3 4 -4 13 -14 21 -13 10 -16 18 -10 30 6
12 5 17 -5 17 -8 0 -11 -5 -8 -11 4 -8 2 -8 -6 0 -7 6 -13 21 -14 33 -1 11 -5
21 -9 21 -4 0 -14 14 -23 30 -9 17 -12 30 -9 30 4 0 -3 8 -14 19 -24 20 -18
38 7 18 14 -10 14 -10 3 5 -8 9 -20 14 -28 11 -9 -3 -12 0 -9 9 3 8 -2 21 -12
29 -17 13 -17 13 -3 -6 14 -19 14 -19 -2 -6 -10 7 -16 17 -13 21 3 4 -2 13
-11 20 -8 7 -13 19 -10 27 3 8 2 12 -3 9 -5 -3 -18 10 -29 28 -17 29 -18 34
-5 29 11 -4 14 -2 9 5 -4 7 -13 12 -21 12 -12 0 -25 19 -31 48 -1 7 -13 22
-26 33 -12 11 -16 17 -8 13 8 -4 2 5 -13 21 -15 16 -26 34 -23 41 3 9 -1 11
-12 7 -15 -6 -16 -5 -2 12 14 17 14 18 -8 6 -13 -7 -20 -17 -15 -24 4 -7 0 -6
-10 2 -15 12 -17 12 -13 0 8 -22 -39 -69 -63 -64 -12 2 -19 0 -16 -6 4 -5 11
-7 16 -4 5 3 6 -1 3 -10 -5 -13 -9 -13 -22 -3 -14 12 -14 10 -3 -11 8 -15 9
-21 2 -17 -6 4 -11 1 -11 -7 0 -16 -33 -57 -45 -57 -5 0 2 11 14 24 21 22 21
24 5 22 -11 -2 -19 -8 -19 -14 0 -6 -5 -16 -12 -23 -6 -6 -9 -18 -6 -27 5 -11
3 -13 -7 -7 -9 5 -11 4 -6 -3 4 -6 2 -20 -3 -30 -6 -11 -11 -136 -13 -298 l-3
-279 -140 -2 c-156 -3 -217 3 -194 18 8 5 10 9 4 9 -10 0 -10 1948 0 1958 3 3
0 11 -5 17 -8 9 29 12 159 12 124 0 171 -4 175 -12z"/>
<path d="M4176 3932 c-3 -5 1 -9 9 -9 8 0 12 4 9 9 -3 4 -7 8 -9 8 -2 0 -6 -4
-9 -8z"/>
<path d="M4215 3930 c3 -5 8 -10 11 -10 2 0 4 5 4 10 0 6 -5 10 -11 10 -5 0
-7 -4 -4 -10z"/>
<path d="M4030 3705 c0 -2 6 -8 13 -14 10 -8 14 -7 14 2 0 8 -6 14 -14 14 -7
0 -13 -1 -13 -2z"/>
<path d="M4006 3692 c-3 -5 1 -9 9 -9 8 0 12 4 9 9 -3 4 -7 8 -9 8 -2 0 -6 -4
-9 -8z"/>
<path d="M4380 3670 c-8 -5 -10 -10 -5 -10 6 0 17 5 25 10 8 5 11 10 5 10 -5
0 -17 -5 -25 -10z"/>
<path d="M4346 3643 c-6 -14 -5 -15 5 -6 7 7 10 15 7 18 -3 3 -9 -2 -12 -12z"/>
<path d="M3876 3493 c-6 -14 -5 -15 5 -6 7 7 10 15 7 18 -3 3 -9 -2 -12 -12z"/>
<path d="M4207 3419 c-11 -15 -16 -17 -20 -7 -4 9 -6 9 -6 1 -2 -23 17 -22 33
2 20 30 13 34 -7 4z"/>
<path d="M4246 2773 c-6 -14 -5 -15 5 -6 7 7 10 15 7 18 -3 3 -9 -2 -12 -12z"/>
<path d="M4280 2741 c0 -6 4 -13 10 -16 6 -3 7 1 4 9 -7 18 -14 21 -14 7z"/>
<path d="M3960 2651 c0 -6 4 -13 10 -16 6 -3 7 1 4 9 -7 18 -14 21 -14 7z"/>
<path d="M4136 2392 c-3 -5 1 -9 9 -9 8 0 12 4 9 9 -3 4 -7 8 -9 8 -2 0 -6 -4
-9 -8z"/>
<path d="M4643 2191 c0 -11 5 -18 9 -15 4 3 5 11 1 19 -7 21 -12 19 -10 -4z"/>
<path d="M3250 2076 c0 -2 7 -7 16 -10 8 -3 12 -2 9 4 -6 10 -25 14 -25 6z"/>
<path d="M4746 4008 c3 -5 10 -6 15 -3 13 9 11 12 -6 12 -8 0 -12 -4 -9 -9z"/>
<path d="M4101 3970 c14 -31 19 -36 19 -24 0 6 -7 19 -16 30 -14 18 -14 18 -3
-6z"/>
<path d="M4373 2785 c0 -8 4 -12 9 -9 5 3 6 10 3 15 -9 13 -12 11 -12 -6z"/>
<path d="M3736 2691 c-4 -5 -2 -12 3 -15 5 -4 12 -2 15 3 4 5 2 12 -3 15 -5 4
-12 2 -15 -3z"/>
<path d="M4769 2143 c-13 -16 -12 -17 4 -4 16 13 21 21 13 21 -2 0 -10 -8 -17
-17z"/>
<path d="M861 1584 c0 -11 3 -14 6 -6 3 7 2 16 -1 19 -3 4 -6 -2 -5 -13z"/>
</g>
</svg>
